<svg width="266" height="40" viewBox="0 0 266 40" fill="none" xmlns="http://www.w3.org/2000/svg">
	<rect x="1.9098" y="1.3783" width="171.458" height="36.7276" rx="18.3638" stroke="#58595b" stroke-width="2.4485" />
	<path d="M24.9186 26.275V12.6026H30.1094C31.4414 12.6026 32.46 12.9813 33.1652 13.7387C33.8703 14.4961 34.2229 15.5277 34.2229 16.8336C34.2229 18.1395 33.8703 19.1711 33.1652 19.9285C32.46 20.6859 31.4414 21.0646 30.1094 21.0646H27.4846V26.275H24.9186ZM27.4846 18.9687H29.5806C30.2727 18.9687 30.7689 18.8316 31.0692 18.5573C31.3696 18.27 31.5198 17.8195 31.5198 17.2058V16.4614C31.5198 15.8477 31.3696 15.4037 31.0692 15.1294C30.7689 14.8421 30.2727 14.6985 29.5806 14.6985H27.4846V18.9687ZM41.9525 26.5101C41.1821 26.5101 40.49 26.386 39.8762 26.1379C39.2755 25.8898 38.7597 25.5372 38.3288 25.0802C37.9109 24.6231 37.5844 24.0681 37.3494 23.4152C37.1274 22.7622 37.0164 22.031 37.0164 21.2213C37.0164 20.4117 37.1274 19.6804 37.3494 19.0275C37.5844 18.3745 37.9109 17.8195 38.3288 17.3625C38.7597 16.9054 39.2755 16.5528 39.8762 16.3047C40.49 16.0566 41.1821 15.9325 41.9525 15.9325C42.7099 15.9325 43.3955 16.0566 44.0093 16.3047C44.623 16.5528 45.1389 16.9054 45.5567 17.3625C45.9877 17.8195 46.3141 18.3745 46.5361 19.0275C46.7712 19.6804 46.8887 20.4117 46.8887 21.2213C46.8887 22.031 46.7712 22.7622 46.5361 23.4152C46.3141 24.0681 45.9877 24.6231 45.5567 25.0802C45.1389 25.5372 44.623 25.8898 44.0093 26.1379C43.3955 26.386 42.7099 26.5101 41.9525 26.5101ZM41.9525 24.5905C42.6708 24.5905 43.2388 24.375 43.6567 23.944C44.0746 23.5001 44.2835 22.8536 44.2835 22.0048V20.4378C44.2835 19.589 44.0746 18.9491 43.6567 18.5182C43.2388 18.0742 42.6708 17.8522 41.9525 17.8522C41.2343 17.8522 40.6663 18.0742 40.2484 18.5182C39.8305 18.9491 39.6216 19.589 39.6216 20.4378V22.0048C39.6216 22.8536 39.8305 23.5001 40.2484 23.944C40.6663 24.375 41.2343 24.5905 41.9525 24.5905ZM49.0749 16.1676H51.1709L52.0327 24.5121H52.209L53.5802 16.1676H55.872L57.2236 24.5121H57.3999L58.2813 16.1676H60.2793L58.9865 26.275H55.9503L54.7751 18.8512H54.5988L53.4039 26.275H50.3677L49.0749 16.1676ZM67.6367 26.5101C66.8271 26.5101 66.1089 26.386 65.4821 26.1379C64.8552 25.8898 64.3264 25.5372 63.8954 25.0802C63.4775 24.6231 63.1576 24.0746 62.9356 23.4348C62.7136 22.7818 62.6026 22.0505 62.6026 21.2409C62.6026 20.4182 62.7136 19.6804 62.9356 19.0275C63.1707 18.3745 63.4971 17.8195 63.915 17.3625C64.3329 16.9054 64.8357 16.5528 65.4233 16.3047C66.024 16.0566 66.6965 15.9325 67.4409 15.9325C68.1721 15.9325 68.8316 16.0566 69.4193 16.3047C70.0069 16.5398 70.5031 16.8793 70.9079 17.3233C71.3258 17.7673 71.6458 18.3027 71.8678 18.9295C72.0898 19.5563 72.2008 20.2484 72.2008 21.0058V21.8285H65.1099V22.0832C65.1099 22.8145 65.3384 23.4086 65.7955 23.8657C66.2525 24.3097 66.8924 24.5317 67.7151 24.5317C68.3419 24.5317 68.8773 24.4076 69.3213 24.1595C69.7784 23.8983 70.1571 23.5588 70.4574 23.1409L71.8873 24.5709C71.5217 25.1063 70.9863 25.5633 70.2811 25.942C69.589 26.3207 68.7076 26.5101 67.6367 26.5101ZM67.4604 17.7738C66.7553 17.7738 66.1872 17.9958 65.7563 18.4398C65.3254 18.8838 65.1099 19.4714 65.1099 20.2027V20.3399H69.6935V20.1636C69.6935 19.4323 69.4911 18.8512 69.0863 18.4202C68.6945 17.9893 68.1526 17.7738 67.4604 17.7738ZM75.7189 24.2966H78.2262V18.146H75.7189V16.1676H80.7335V18.9295H80.8902C80.9816 18.5769 81.1057 18.2374 81.2624 17.9109C81.4321 17.5714 81.6411 17.2776 81.8892 17.0295C82.1504 16.7683 82.4638 16.5594 82.8294 16.4027C83.195 16.246 83.6325 16.1676 84.1418 16.1676H85.2387V18.5182H83.1624C82.405 18.5182 81.8108 18.7402 81.3799 19.1842C80.949 19.6282 80.7335 20.1962 80.7335 20.8883V24.2966H84.2397V26.275H75.7189V24.2966ZM93.0859 26.5101C92.2762 26.5101 91.558 26.386 90.9312 26.1379C90.3044 25.8898 89.7755 25.5372 89.3446 25.0802C88.9267 24.6231 88.6068 24.0746 88.3848 23.4348C88.1628 22.7818 88.0518 22.0505 88.0518 21.2409C88.0518 20.4182 88.1628 19.6804 88.3848 19.0275C88.6198 18.3745 88.9463 17.8195 89.3642 17.3625C89.782 16.9054 90.2848 16.5528 90.8724 16.3047C91.4731 16.0566 92.1457 15.9325 92.89 15.9325C93.6213 15.9325 94.2808 16.0566 94.8684 16.3047C95.456 16.5398 95.9523 16.8793 96.3571 17.3233C96.775 17.7673 97.0949 18.3027 97.3169 18.9295C97.5389 19.5563 97.6499 20.2484 97.6499 21.0058V21.8285H90.559V22.0832C90.559 22.8145 90.7876 23.4086 91.2446 23.8657C91.7017 24.3097 92.3415 24.5317 93.1642 24.5317C93.7911 24.5317 94.3265 24.4076 94.7705 24.1595C95.2275 23.8983 95.6062 23.5588 95.9066 23.1409L97.3365 24.5709C96.9708 25.1063 96.4354 25.5633 95.7303 25.942C95.0382 26.3207 94.1567 26.5101 93.0859 26.5101ZM92.9096 17.7738C92.2044 17.7738 91.6364 17.9958 91.2054 18.4398C90.7745 18.8838 90.559 19.4714 90.559 20.2027V20.3399H95.1426V20.1636C95.1426 19.4323 94.9402 18.8512 94.5354 18.4202C94.1436 17.9893 93.6017 17.7738 92.9096 17.7738ZM107.593 24.4925H107.456C107.182 25.1063 106.803 25.596 106.32 25.9616C105.85 26.3273 105.223 26.5101 104.439 26.5101C103.865 26.5101 103.336 26.4056 102.853 26.1967C102.383 25.9747 101.978 25.6482 101.638 25.2173C101.299 24.7733 101.037 24.2183 100.855 23.5523C100.672 22.8863 100.58 22.1093 100.58 21.2213C100.58 19.4453 100.933 18.1199 101.638 17.2449C102.343 16.37 103.277 15.9325 104.439 15.9325C105.223 15.9325 105.85 16.1154 106.32 16.481C106.803 16.8467 107.182 17.3364 107.456 17.9501H107.593V11.7799H110.1V26.275H107.593V24.4925ZM105.497 24.5121C105.784 24.5121 106.052 24.4795 106.3 24.4142C106.561 24.3358 106.783 24.2313 106.966 24.1008C107.162 23.9571 107.312 23.7808 107.417 23.5719C107.534 23.3499 107.593 23.0952 107.593 22.8079V19.6347C107.593 19.3474 107.534 19.0993 107.417 18.8903C107.312 18.6683 107.162 18.492 106.966 18.3615C106.783 18.2178 106.561 18.1133 106.3 18.048C106.052 17.9697 105.784 17.9305 105.497 17.9305C104.766 17.9305 104.198 18.1525 103.793 18.5965C103.401 19.0405 103.205 19.6477 103.205 20.4182V22.0244C103.205 22.7949 103.401 23.4021 103.793 23.8461C104.198 24.2901 104.766 24.5121 105.497 24.5121ZM126.5 11.7799H129.007V17.9501H129.144C129.418 17.3364 129.79 16.8467 130.261 16.481C130.744 16.1154 131.377 15.9325 132.161 15.9325C132.735 15.9325 133.258 16.0435 133.728 16.2655C134.211 16.4745 134.622 16.8009 134.962 17.2449C135.301 17.6759 135.562 18.2243 135.745 18.8903C135.928 19.5563 136.019 20.3333 136.019 21.2213C136.019 22.1093 135.928 22.8863 135.745 23.5523C135.562 24.2183 135.301 24.7733 134.962 25.2173C134.622 25.6482 134.211 25.9747 133.728 26.1967C133.258 26.4056 132.735 26.5101 132.161 26.5101C131.377 26.5101 130.744 26.3273 130.261 25.9616C129.79 25.596 129.418 25.1063 129.144 24.4925H129.007V26.275H126.5V11.7799ZM131.103 24.5121C131.834 24.5121 132.396 24.2901 132.787 23.8461C133.192 23.4021 133.395 22.7949 133.395 22.0244V20.4182C133.395 19.6477 133.192 19.0405 132.787 18.5965C132.396 18.1525 131.834 17.9305 131.103 17.9305C130.528 17.9305 130.032 18.0742 129.614 18.3615C129.209 18.6357 129.007 19.0601 129.007 19.6347V22.8079C129.007 23.3825 129.209 23.8135 129.614 24.1008C130.032 24.375 130.528 24.5121 131.103 24.5121ZM146.511 16.1676H149.057L144.219 28.0771C143.945 28.7692 143.579 29.2916 143.122 29.6442C142.665 30.0098 142.019 30.1926 141.183 30.1926H139.342V28.2142H141.751L142.515 26.1771L138.441 16.1676H141.105L142.652 20.3986L143.73 23.6111H143.867L144.944 20.3986L146.511 16.1676Z" fill="#58595b" />
	<path fill-rule="evenodd" clip-rule="evenodd" d="M203.791 14.0751C199.255 14.0751 195.564 17.623 195.564 21.9848C195.564 26.3465 199.255 29.895 203.791 29.895C208.327 29.895 212.017 26.3464 212.017 21.9848C212.017 17.623 208.327 14.0751 203.791 14.0751ZM203.791 26.2443C201.349 26.2443 199.361 24.3334 199.361 21.985C199.361 19.6364 201.348 17.7258 203.791 17.7258C206.233 17.7258 208.22 19.6363 208.22 21.985C208.22 24.3333 206.233 26.2443 203.791 26.2443Z" fill="#58595b" />
	<path fill-rule="evenodd" clip-rule="evenodd" d="M265.804 13.8117H261.428V7.62567H257.677V13.8117H252.674H248.923H243.92V7.62596C243.92 5.63439 244.342 4.98365 244.481 4.82131C244.824 4.41108 245.461 3.86546 247.008 3.86546C247.225 3.86546 247.731 3.91918 248.676 4.27888L250.022 0.814487C248.854 0.369872 247.868 0.153809 247.008 0.153809C244.693 0.153809 242.872 0.926875 241.602 2.44072C240.637 3.5743 240.169 5.27011 240.169 7.62596V13.8117H235.167V7.62567H231.415V13.8117H223.287V22.7422C223.287 23.4679 223.205 24.083 223.043 24.5716C222.923 24.8887 222.71 25.1799 222.406 25.4505C221.841 25.9436 221.106 26.1836 220.16 26.1836C219.222 26.1836 218.491 25.9436 217.929 25.4519C217.597 25.1614 217.375 24.8611 217.251 24.5339L217.233 24.4877C217.173 24.3413 217.034 23.8783 217.034 22.7419V13.8117H213.282V22.7422C213.282 24.0625 213.434 25.0821 213.746 25.8578C214.087 26.7464 214.657 27.5441 215.444 28.2332C216.706 29.3362 218.293 29.8953 220.16 29.8953C222.034 29.8953 223.625 29.3362 224.901 28.2218C225.683 27.5261 226.247 26.7175 226.577 25.8184L226.592 25.7753C226.888 24.9023 227.038 23.8819 227.038 22.7423V17.5228H231.415V29.8953H235.167V17.5228H240.169V29.8953H243.92V17.5228H248.923L248.923 29.8953H252.675L252.674 17.5228H257.677V29.8953H261.428V17.5228H265.804V13.8117Z" fill="#58595b" />
	<path fill-rule="evenodd" clip-rule="evenodd" d="M248.087 10.9118C248.087 11.9603 248.937 12.81 249.985 12.81C251.033 12.81 251.884 11.9602 251.884 10.9118C251.884 9.8633 251.033 9.01318 249.985 9.01318C248.937 9.01324 248.087 9.86342 248.087 10.9118Z" fill="#58595b" />
</svg>
